<?xml version="1.0" encoding="UTF-8"?>
<svg width="256px" height="256px" viewBox="0 0 256 256" version="1.1" xmlns="http://www.w3.org/2000/svg" xmlns:xlink="http://www.w3.org/1999/xlink">
    <title>icon</title>
    <defs>
        <linearGradient x1="0%" y1="0%" x2="100%" y2="100%" id="linearGradient-1">
            <stop stop-color="#FF8145" offset="0%"></stop>
            <stop stop-color="#F4529E" offset="100%"></stop>
        </linearGradient>
        <filter x="-19.3%" y="-22.7%" width="138.6%" height="145.3%" filterUnits="objectBoundingBox" id="filter-2">
            <feOffset dx="0" dy="0" in="SourceAlpha" result="shadowOffsetOuter1"></feOffset>
            <feGaussianBlur stdDeviation="10" in="shadowOffsetOuter1" result="shadowBlurOuter1"></feGaussianBlur>
            <feColorMatrix values="0 0 0 0 0.996078431   0 0 0 0 0.203921569   0 0 0 0 0.490196078  0 0 0 0.361471536 0" type="matrix" in="shadowBlurOuter1" result="shadowMatrixOuter1"></feColorMatrix>
            <feMerge>
                <feMergeNode in="shadowMatrixOuter1"></feMergeNode>
                <feMergeNode in="SourceGraphic"></feMergeNode>
            </feMerge>
        </filter>
    </defs>
    <g id="icon" stroke="none" stroke-width="1" fill="none" fill-rule="evenodd">
        <rect id="Rectangle" fill="url(#linearGradient-1)" x="0" y="0" width="256" height="256"></rect>
        <g id="birdf" filter="url(#filter-2)" transform="translate(27.000000, 42.000000)" fill="#FFFFFF" fill-rule="nonzero">
            <path d="M178.504196,9.63225419e-06 L178.516154,0.0025203954 C178.56418,0.0268939567 175.912022,3.72520207 172.651302,8.17836959 C162.256449,22.4280466 160.023998,25.5323374 159.948917,25.8441373 L159.946979,25.8600643 C159.947233,25.8642116 159.948369,25.8672224 159.950333,25.8691723 C159.999076,25.9179192 160.850633,26.0397862 161.82333,26.1121896 C162.796027,26.2096832 163.575188,26.3802973 163.575188,26.4777909 C163.550817,26.5989411 159.900157,31.8549977 155.472488,38.1820512 C151.044818,44.5091046 147.41853,49.7651612 147.41853,49.8375647 C147.41853,49.910685 148.198407,50.0569255 149.121645,50.1544191 C150.070688,50.2275394 150.826194,50.3486895 150.826194,50.3974364 C150.826194,50.4218098 148.075835,54.3151056 144.742001,59.0363806 C141.384512,63.7569388 138.733071,67.6746077 138.829839,67.7964749 C138.928041,67.8932517 140.28996,68.3312565 141.823194,68.7448877 C149.171104,70.8137611 167.104709,77.2375913 179.463764,82.2262572 C180.187216,82.5183033 180.916743,82.8147674 181.648158,83.1138083 L182.380046,83.41364 C183.478356,83.8644714 184.577768,84.31972 185.664146,84.7731721 L186.386312,85.0751392 C192.625653,87.6886991 198.324959,90.1961948 200.757266,91.3991616 L201.023263,91.5321079 C201.693098,91.8708296 202.043702,92.0816816 201.995636,92.1297518 C201.87378,92.2028721 201.192104,92.4939195 200.462402,92.7139971 C199.731984,92.9562977 194.014075,95.0015145 187.737062,97.2402849 L187.737062,97.2402849 L176.373642,101.303478 L172.042023,99.8919698 L167.735492,98.4560885 L170.265794,100.840383 C171.677889,102.154397 172.700045,103.274857 172.578189,103.347261 C172.456333,103.419664 170.194114,104.272017 167.566327,105.244086 L167.566327,105.244086 L162.772373,106.996105 L158.56261,105.244086 C152.577335,102.737925 152.966557,102.836136 154.232425,104.19818 C154.840271,104.831172 156.008654,106.096439 156.860211,106.972449 C157.711052,107.872115 158.319615,108.652064 158.22213,108.700094 C158.100274,108.771781 154.815183,109.721627 150.946616,110.816997 L150.946616,110.816997 L143.890443,112.811317 L140.022593,110.986895 C137.881514,109.965361 136.106001,109.186846 136.032171,109.234876 C135.983429,109.308713 136.275883,110.403366 136.713847,111.693007 C137.151095,112.982648 137.442832,114.078018 137.418461,114.126765 C137.22007,114.294962 132.968119,114.51138 128.484128,114.630602 L127.792967,114.648157 C125.371107,114.70678 122.93879,114.73506 121.092638,114.710293 L121.092638,114.710293 L114.620656,114.612799 L114.936048,115.343285 C115.107363,115.732543 115.812694,117.265918 116.469999,118.749829 C119.535033,125.489797 123.501801,139.117407 126.956774,154.76371 C127.784677,158.487108 130.095639,169.923261 130.436118,171.943388 C130.517722,172.348467 128.632783,170.618515 123.497574,165.49807 L122.964095,164.965609 C122.056122,164.058533 121.053527,163.052834 119.95006,161.942399 C119.792295,161.784365 119.635613,161.627487 119.48,161.471754 L118.559059,160.550996 C107.35651,149.362058 101.867428,144.312276 96.7227761,140.644984 L96.3062909,140.350572 C95.9596722,140.107596 95.6139635,139.870346 95.2675086,139.637352 L94.8512985,139.35971 L94.8512985,139.35971 L94.433736,139.085591 C94.0850272,138.85847 93.7342472,138.634433 93.3797398,138.412012 C92.5038108,137.85214 89.4868021,136.124494 86.6884173,134.567463 C79.6322439,130.60033 75.8611624,128.312813 69.9246297,124.371487 C59.461509,117.460189 55.2524627,114.247915 50.9703032,109.989735 C43.670418,102.737925 39.3882585,95.1706948 37.6364007,86.4349738 C37.1740651,84.171113 37.0765804,82.9545925 37.0765804,79.2075375 C37.1009515,76.7250327 37.2228075,74.0970044 37.3690346,73.3672355 C37.538916,72.6374667 37.8793957,70.9822246 38.1474787,69.7169573 C38.9746653,65.7261681 40.7265229,52.1236485 40.4591568,51.6856437 C40.3645393,51.5126262 37.4989762,50.2696065 34.499386,49.0577484 L33.9531161,48.8379991 C33.8620206,48.8015132 33.7709488,48.7651171 33.6799741,48.7288416 L33.1358774,48.5128802 C31.9620684,48.04916 30.8294628,47.6161678 29.899268,47.2812231 C23.888905,45.0911995 17.149557,43.3879275 5.10517672,41.0272899 C0.336310243,40.0788771 -0.75895917,39.786396 0.458166211,39.786396 L0.476359388,39.7860173 C1.02533913,39.7681228 9.94962551,39.1182577 20.5070454,38.3024848 C36.5419626,37.0904734 39.4022131,36.8676406 41.0797902,36.4235687 L41.1991685,36.3910648 L41.1991685,36.3910648 L41.3154333,36.3576885 L41.3154333,36.3576885 L41.4295912,36.3233382 C41.505218,36.3000908 41.5801113,36.2761264 41.6556135,36.2513094 L41.7694911,36.2134275 C41.8650494,36.1812982 41.9626076,36.147731 42.0647873,36.1124612 C46.3469469,34.5790863 52.1867116,33.994841 56.2258762,34.6522066 C65.5930108,36.2336114 75.2769708,42.8036822 82.1632626,52.2942623 C82.9173356,53.3401688 83.7688933,54.4599125 84.0362594,54.8004235 L84.0362594,54.8004235 L84.5229661,55.3846688 L87.1994951,53.2677655 C100.752022,42.5119181 116.738082,31.7080406 133.307617,22.0963103 C146.640802,14.3577491 162.335125,6.52241088 174.428248,1.55811852 C174.744459,1.42949239 175.052756,1.30484559 175.349088,1.1858125 L175.784108,1.01167743 C177.342568,0.390118044 178.477857,-0.0369069779 178.516154,0.0025203954 Z M58,44 C56.3431458,44 55,45.3431458 55,47 C55,48.6568542 56.3431458,50 58,50 C59.6568542,50 61,48.6568542 61,47 C61,45.3431458 59.6568542,44 58,44 Z" id="Combined-Shape"></path>
        </g>
    </g>
</svg>