<?xml version="1.0" standalone="no"?>
<!DOCTYPE svg PUBLIC "-//W3C//DTD SVG 20010904//EN"
 "http://www.w3.org/TR/2001/REC-SVG-20010904/DTD/svg10.dtd">
<svg version="1.0" xmlns="http://www.w3.org/2000/svg"
 width="500.000000pt" height="500.000000pt" viewBox="0 0 500.000000 500.000000"
 preserveAspectRatio="xMidYMid meet">
<metadata>
Created by potrace 1.11, written by Peter Selinger 2001-2013
</metadata>
<g transform="translate(0.000000,500.000000) scale(0.100000,-0.100000)"
fill="#000000" stroke="none">
<path d="M1330 3906 l0 -216 -186 0 c-172 0 -185 -1 -180 -17 3 -10 8 -30 12
-45 l6 -28 174 0 174 0 0 -260 0 -260 63 0 c67 0 143 17 195 44 25 13 32 23
32 46 0 30 1 30 55 30 l55 0 0 -130 0 -130 -145 0 -145 0 -152 61 c-84 34
-159 63 -165 66 -10 4 -13 -79 -13 -397 l0 -403 88 5 c60 4 104 12 137 27 56
25 65 35 65 74 l0 27 165 0 165 0 0 -125 0 -125 -351 0 -351 0 6 -22 c4 -13 9
-35 12 -50 l7 -28 338 0 339 0 0 -135 0 -135 -315 0 c-245 0 -315 -3 -315 -12
0 -7 5 -30 11 -50 l10 -38 304 0 305 0 0 -134 0 -135 -42 -5 c-54 -7 -413 -33
-580 -42 -71 -4 -128 -10 -128 -13 0 -3 33 -88 72 -188 44 -111 78 -183 87
-183 7 0 29 16 49 36 36 36 41 38 532 160 461 115 985 255 997 267 10 11 -9
47 -25 47 -9 0 -163 -14 -341 -30 -179 -16 -328 -27 -333 -24 -4 3 -8 59 -8
125 l0 119 318 0 c334 0 364 4 370 45 2 20 -76 94 -214 204 l-52 41 -73 -95
-74 -95 -135 2 -135 3 0 130 0 130 350 5 c193 3 351 7 352 8 1 1 9 9 17 18 9
8 16 19 16 23 0 4 -54 54 -121 111 l-120 104 51 13 c28 7 64 20 80 28 l30 16
0 228 0 229 35 6 c19 4 46 17 61 29 l25 22 -143 105 c-79 58 -146 105 -149
105 -3 0 -37 -35 -74 -78 l-69 -77 -170 2 -171 3 -3 128 -3 127 76 0 75 0 0
-56 0 -57 75 7 c73 7 175 36 201 57 11 9 14 58 14 230 l0 219 243 0 c203 0
246 3 265 16 12 8 22 21 22 29 0 19 -252 255 -272 255 -3 0 -38 -47 -78 -105
l-74 -105 -53 0 -53 0 0 143 0 143 45 12 c33 9 50 20 65 44 10 18 18 34 16 36
-4 4 -357 41 -393 42 l-23 0 0 -210 0 -210 -270 0 -270 0 0 145 c0 130 2 146
18 151 44 13 88 41 99 64 6 13 11 25 10 26 -1 1 -74 9 -162 18 -88 9 -181 19
-207 22 l-48 6 0 -216z m820 -461 l0 -145 -275 0 -275 0 0 145 0 145 275 0
275 0 0 -145z m-430 -770 l0 -175 -165 0 -165 0 0 175 0 175 165 0 165 0 0
-175z m640 0 l0 -175 -175 0 -175 0 0 175 0 175 175 0 175 0 0 -175z m0 -319
c0 -42 2 -45 30 -48 l29 -3 -60 -77 -60 -78 -145 0 -144 0 0 125 0 125 175 0
175 0 0 -44z"/>
<path d="M3070 3671 l0 -431 -201 0 -201 0 6 -25 c3 -13 11 -36 16 -50 l10
-25 185 0 185 0 0 -92 c0 -136 -18 -431 -35 -601 -66 -638 -241 -1074 -574
-1429 -72 -77 -72 -77 -55 -103 9 -14 18 -25 21 -25 2 0 32 19 66 42 268 181
474 414 616 696 168 334 256 794 274 1427 l2 80 179 3 179 2 -7 -282 c-22
-940 -69 -1419 -150 -1541 -39 -59 -75 -69 -211 -63 -66 3 -155 9 -197 12
l-78 7 0 -26 c0 -23 7 -27 73 -47 121 -36 192 -89 216 -159 6 -19 11 -63 11
-99 l0 -65 73 8 c186 18 340 118 403 262 99 222 148 701 170 1656 l7 287 41
11 c51 14 96 37 96 49 0 10 -299 270 -310 270 -4 0 -46 -40 -93 -90 l-86 -90
-156 0 -155 0 0 308 c0 169 3 330 6 358 6 49 8 52 45 63 37 11 79 51 79 76 0
8 -57 17 -182 29 -101 9 -202 19 -225 23 l-43 5 0 -431z"/>
</g>
</svg>
