<?xml version="1.0" encoding="UTF-8"?>
<svg width="166px" height="166px" viewBox="0 0 166 166" version="1.1" xmlns="http://www.w3.org/2000/svg" xmlns:xlink="http://www.w3.org/1999/xlink">
    <!-- Generator: Sketch 63.1 (92452) - https://sketch.com -->
    <title>bold</title>
    <desc>Created with Sketch.</desc>
    <g id="Symbols" stroke="none" stroke-width="1" fill="none" fill-rule="evenodd">
        <g id="qinSquare" transform="translate(-49.000000, -45.000000)" fill="#333333" fill-rule="nonzero">
            <path d="M103,133 L103,146 L117.59322,146 L124,137.694444 L120.974576,137.694444 L120.974576,133 L103,133 Z M71,128 L88,128 L88,110 L71,110 L71,128 Z M121,110 L103,110 L103,128 L121,128 L121,110 Z M82,72 L82,87 L110,87 L110,72 L82,72 Z M138.777778,179.551268 L139.311111,182.213892 C121.888889,187.361632 97.3555556,193.929438 62.5111111,202.094818 C61.4444444,204.402426 59.4888889,205.644983 57.7111111,206 L49.8888889,186.47409 C58.0666667,186.119074 71.7555556,185.231533 88.6444444,183.811466 L88.6444444,169.965821 L57.3555556,169.965821 L55.9333333,164.818082 L88.6444444,164.818082 L88.6444444,151.149945 L53.9777778,151.149945 L52.5555556,146.002205 L88.6444444,146.002205 L88.6444444,133.22161 L71.5777778,133.22161 L71.5777778,136.23925 C71.5777778,137.3043 66.7777778,139.966924 59.1333333,139.966924 L56.6444444,139.966924 L56.6444444,98.6074972 L73.5333333,105.352811 L88.6444444,105.352811 L88.6444444,92.0396913 L82.9555556,92.0396913 L82.9555556,94.7023153 C82.9555556,95.9448732 76.5555556,98.6074972 70.8666667,98.6074972 L68.2,98.6074972 L68.2,71.8037486 L50.2444444,71.8037486 L49,66.8335171 L68.2,66.8335171 L68.2,45 L89.5333333,47.1300992 C89.1777778,49.615215 87.5777778,51.3902977 82.9555556,52.1003308 L82.9555556,66.8335171 L110.511111,66.8335171 L110.511111,45.3550165 L132.022222,47.4851158 C131.666667,49.9702315 130.066667,51.7453142 125.444444,52.4553473 L125.444444,66.8335171 L130.955556,66.8335171 L138.6,56.0055127 C138.6,56.0055127 147.666667,63.46086 153,68.9636163 C152.644444,70.9162073 150.866667,71.8037486 148.555556,71.8037486 L125.444444,71.8037486 L125.444444,93.814774 C125.444444,95.2348401 118.866667,97.7199559 113.177778,97.7199559 L110.511111,97.7199559 L110.511111,92.0396913 L103.222222,92.0396913 L103.222222,105.352811 L120.644444,105.352811 L127.933333,97.1874311 L143.044444,108.370452 C141.8,109.790518 140.2,110.67806 136.644444,111.388093 L136.644444,134.464168 C136.644444,134.996692 133.444444,136.771775 128.466667,137.481808 C131.488889,140.144432 137,144.759647 140.911111,148.309813 C140.377778,150.262404 138.777778,151.149945 136.288889,151.149945 L103.222222,151.149945 L103.222222,164.818082 L116.911111,164.818082 L124.555556,155.055127 C124.555556,155.055127 133.444444,161.977949 138.6,167.125689 C138.066667,169.07828 136.644444,169.965821 134.155556,169.965821 L103.222222,169.965821 L103.222222,182.746417 C114.6,181.681367 126.688889,180.616318 138.777778,179.551268 Z M198.640535,80.5307443 L215,94.592233 C213.755258,96.0161812 211.443595,97.0841424 207.531549,97.7961165 C206.286807,166.145631 203.619503,193.556634 195.08413,202.812298 C189.749522,208.508091 182.458891,211 174.279159,211 C174.279159,205.660194 173.923518,201.566343 171.611855,199.430421 C169.300191,196.760518 164.499044,194.802589 158.453155,193.556634 L158.453155,190.708738 C164.321224,191.242718 172.856597,191.954693 176.413002,191.954693 C179.435946,191.954693 180.858509,191.420712 182.636711,189.81877 C188.32696,184.122977 190.460803,154.576052 191.527725,95.1262136 L173.390057,95.1262136 C172.145315,145.498382 165.743786,184.122977 124.311663,210.644013 L122,207.796117 C151.695985,179.851133 156.497132,142.828479 157.208413,95.1262136 L138.003824,95.1262136 L136.403442,89.9644013 L157.208413,89.9644013 C157.386233,76.2588997 157.208413,61.6634304 157.208413,46 L180.502868,48.3139159 C179.969407,50.9838188 178.191205,52.763754 173.923518,53.4757282 C173.745698,66.1132686 173.745698,78.394822 173.567878,89.9644013 L189.571702,89.9644013 L198.640535,80.5307443 Z" id="bold"></path>
        </g>
    </g>
</svg>