<?xml version="1.0" encoding="UTF-8"?>
<svg width="25px" height="21px" viewBox="0 0 25 21" version="1.1" xmlns="http://www.w3.org/2000/svg" xmlns:xlink="http://www.w3.org/1999/xlink">
    <!-- Generator: Sketch 53.1 (72631) - https://sketchapp.com -->
    <title>Artboard</title>
    <desc>Created with Sketch.</desc>
    <g id="Artboard" stroke="none" stroke-width="1" fill="none" fill-rule="evenodd">
        <path d="M5.152,8.678 C5.636,8.678 6.054,8.832 6.384,9.14 C6.692,9.448 6.868,9.844 6.868,10.328 C6.868,10.812 6.692,11.23 6.384,11.538 C6.032,11.846 5.636,12 5.152,12 C4.668,12 4.272,11.824 3.964,11.516 C3.612,11.208 3.458,10.812 3.458,10.328 C3.458,9.844 3.612,9.448 3.964,9.14 C4.272,8.832 4.668,8.678 5.152,8.678 Z M12.5,8.678 C12.984,8.678 13.402,8.832 13.732,9.14 C14.04,9.448 14.216,9.844 14.216,10.328 C14.216,10.812 14.04,11.23 13.732,11.538 C13.38,11.846 12.984,12 12.5,12 C12.016,12 11.62,11.824 11.312,11.516 C10.96,11.208 10.806,10.812 10.806,10.328 C10.806,9.844 10.96,9.448 11.312,9.14 C11.62,8.832 12.016,8.678 12.5,8.678 Z M19.826,8.678 C20.31,8.678 20.728,8.832 21.058,9.14 C21.366,9.448 21.542,9.844 21.542,10.328 C21.542,10.812 21.366,11.23 21.036,11.538 C20.706,11.846 20.31,12 19.826,12 C19.342,12 18.946,11.824 18.616,11.516 C18.286,11.208 18.132,10.812 18.132,10.328 C18.132,9.844 18.286,9.448 18.616,9.14 C18.946,8.832 19.342,8.678 19.826,8.678 Z" id="…" fill="#FFFFFF" fill-rule="nonzero"></path>
    </g>
</svg>