<?xml version="1.0" encoding="UTF-8"?>
<svg width="1048px" height="256px" viewBox="0 0 1048 256" version="1.1" xmlns="http://www.w3.org/2000/svg" xmlns:xlink="http://www.w3.org/1999/xlink">
    <!-- Generator: Sketch 53.1 (72631) - https://sketchapp.com -->
    <title>yiqinzhao</title>
    <desc>Created with Sketch.</desc>
    <defs>
        <path d="M151.136,50.448 C157.024029,50.448 161.887981,50.2560019 165.728,49.872 L165.728,53.712 C159.839971,56.1440122 153.696032,63.5679379 147.296,75.984 L124.64,120.912 L124.64,165.648 C124.64,170.512024 124.991996,174.031989 125.696,176.208 C126.400004,178.384011 127.71199,179.855996 129.632,180.624 C131.55201,181.392004 134.687978,181.903999 139.04,182.16 L139.04,186 C132.127965,185.615998 122.272064,185.424 109.472,185.424 C95.7759315,185.424 85.8560307,185.615998 79.712,186 L79.712,182.16 C83.9360211,181.903999 87.0399901,181.392004 89.024,180.624 C91.0080099,179.855996 92.3519965,178.384011 93.056,176.208 C93.7600035,174.031989 94.112,170.512024 94.112,165.648 L94.112,133.2 L57.056,64.656 C53.0879802,57.4879642 49.3760173,53.904 45.92,53.904 L45.92,49.872 C51.5520282,50.5120032 59.1039526,50.832 68.576,50.832 C80.4800595,50.832 92.5119392,50.5120032 104.672,49.872 L104.672,53.904 C100.191978,53.904 96.6400131,54.3199958 94.016,55.152 C91.3919869,55.9840042 90.08,57.4879891 90.08,59.664 C90.08,60.8160058 90.5279955,62.2239917 91.424,63.888 L120.608,120.144 L135.584,90.192 C140.576025,80.0799494 143.072,72.1440288 143.072,66.384 C143.072,62.0319782 141.696014,58.8960096 138.944,56.976 C136.191986,55.0559904 132.256026,53.9680013 127.136,53.712 L127.136,49.872 C135.840044,50.2560019 143.839964,50.448 151.136,50.448 Z M194.144,37.2 C199.520027,37.2 203.775984,38.5119869 206.912,41.136 C210.048016,43.7600131 211.616,47.375977 211.616,51.984 C211.616,56.592023 210.048016,60.2079869 206.912,62.832 C203.775984,65.4560131 199.520027,66.768 194.144,66.768 C188.767973,66.768 184.512016,65.4560131 181.376,62.832 C178.239984,60.2079869 176.672,56.592023 176.672,51.984 C176.672,47.375977 178.239984,43.7600131 181.376,41.136 C184.512016,38.5119869 188.767973,37.2 194.144,37.2 Z M209.12,168.144 C209.12,173.392026 210.047991,177.00799 211.904,178.992 C213.760009,180.97601 216.927978,181.968 221.408,181.968 L221.408,186 C208.607936,185.487997 200.096021,185.232 195.872,185.232 C191.90398,185.232 183.008069,185.487997 169.184,186 L169.184,181.968 C173.792023,181.968 176.991991,180.97601 178.784,178.992 C180.576009,177.00799 181.472,173.392026 181.472,168.144 L181.472,107.664 C181.472,101.775971 180.576009,97.4880134 178.784,94.8 C176.991991,92.1119866 173.792023,90.768 169.184,90.768 L169.184,86.736 C173.28002,87.1200019 177.247981,87.312 181.088,87.312 C192.480057,87.312 201.823964,86.416009 209.12,84.624 L209.12,168.144 Z M323.936,203.664 C323.936,208.656025 324.799991,212.079991 326.528,213.936 C328.256009,215.792009 331.231979,216.72 335.456,216.72 L335.456,220.752 C323.167939,220.239997 315.104019,219.984 311.264,219.984 C307.423981,219.984 298.400071,220.175998 284.192,220.56 L279.008,220.752 L279.008,216.72 C284.896029,216.72 289.247986,215.632011 292.064,213.456 C294.880014,211.279989 296.288,207.376028 296.288,201.744 L296.288,171.216 C294.111989,176.976029 290.912021,181.327985 286.688,184.272 C282.463979,187.216015 277.408029,188.688 271.52,188.688 C259.871942,188.688 250.400036,184.272044 243.104,175.44 C235.807964,166.607956 232.16,153.424088 232.16,135.888 C232.16,118.991916 235.967962,106.128044 243.584,97.296 C251.200038,88.4639558 261.407936,84.048 274.208,84.048 C279.584027,84.048 284.159981,84.6559939 287.936,85.872 C291.712019,87.0880061 295.071985,89.1039859 298.016,91.92 C302.496022,92.0480006 307.039977,91.312008 311.648,89.712 C316.256023,88.111992 319.839987,86.0960122 322.4,83.664 L325.28,85.2 C324.383996,88.400016 323.936,92.0479795 323.936,96.144 L323.936,203.664 Z M279.584,180.432 C283.424019,180.432 286.911984,178.992014 290.048,176.112 C293.184016,173.231986 295.263995,169.360024 296.288,164.496 L296.288,93.84 C292.575981,89.9999808 287.648031,88.08 281.504,88.08 C267.935932,88.08 261.152,104.143839 261.152,136.272 C261.152,152.016079 262.751984,163.311966 265.952,170.16 C269.152016,177.008034 273.695971,180.432 279.584,180.432 Z M366.944,37.2 C372.320027,37.2 376.575984,38.5119869 379.712,41.136 C382.848016,43.7600131 384.416,47.375977 384.416,51.984 C384.416,56.592023 382.848016,60.2079869 379.712,62.832 C376.575984,65.4560131 372.320027,66.768 366.944,66.768 C361.567973,66.768 357.312016,65.4560131 354.176,62.832 C351.039984,60.2079869 349.472,56.592023 349.472,51.984 C349.472,47.375977 351.039984,43.7600131 354.176,41.136 C357.312016,38.5119869 361.567973,37.2 366.944,37.2 Z M381.92,168.144 C381.92,173.392026 382.847991,177.00799 384.704,178.992 C386.560009,180.97601 389.727978,181.968 394.208,181.968 L394.208,186 C381.407936,185.487997 372.896021,185.232 368.672,185.232 C364.70398,185.232 355.808069,185.487997 341.984,186 L341.984,181.968 C346.592023,181.968 349.791991,180.97601 351.584,178.992 C353.376009,177.00799 354.272,173.392026 354.272,168.144 L354.272,107.664 C354.272,101.775971 353.376009,97.4880134 351.584,94.8 C349.791991,92.1119866 346.592023,90.768 341.984,90.768 L341.984,86.736 C346.08002,87.1200019 350.047981,87.312 353.888,87.312 C365.280057,87.312 374.623964,86.416009 381.92,84.624 L381.92,168.144 Z M473.888,84.048 C483.616049,84.048 490.655978,86.543975 495.008,91.536 C497.184011,93.9680122 498.719996,97.1039808 499.616,100.944 C500.512004,104.784019 500.96,109.967967 500.96,116.496 L500.96,168.144 C500.96,173.392026 501.887991,177.00799 503.744,178.992 C505.600009,180.97601 508.767978,181.968 513.248,181.968 L513.248,186 C500.447936,185.487997 492.00002,185.232 487.904,185.232 C484.063981,185.232 475.744064,185.487997 462.944,186 L462.944,181.968 C466.784019,181.968 469.471992,180.97601 471.008,178.992 C472.544008,177.00799 473.312,173.392026 473.312,168.144 L473.312,108.432 C473.312,103.183974 472.448009,99.2160134 470.72,96.528 C468.991991,93.8399866 465.888022,92.496 461.408,92.496 C456.159974,92.496 451.680019,94.6399786 447.968,98.928 C444.255981,103.216021 442.4,108.495969 442.4,114.768 L442.4,168.144 C442.4,173.392026 443.167992,177.00799 444.704,178.992 C446.240008,180.97601 448.927981,181.968 452.768,181.968 L452.768,186 C440.991941,185.487997 433.05602,185.232 428.96,185.232 C425.119981,185.232 416.288069,185.487997 402.464,186 L402.464,181.968 C407.072023,181.968 410.271991,180.97601 412.064,178.992 C413.856009,177.00799 414.752,173.392026 414.752,168.144 L414.752,107.664 C414.752,101.775971 413.856009,97.4880134 412.064,94.8 C410.271991,92.1119866 407.072023,90.768 402.464,90.768 L402.464,86.736 C406.56002,87.1200019 410.527981,87.312 414.368,87.312 C425.760057,87.312 435.103964,86.416009 442.4,84.624 L442.4,101.904 C448.160029,89.9999405 458.655924,84.048 473.888,84.048 Z M667.424,53.904 L601.76,181.584 L621.728,181.584 C631.71205,181.584 640.575961,178.256033 648.32,171.6 C656.064039,164.943967 660.703992,154.384072 662.24,139.92 L666.656,139.92 C666.271998,144.272022 666.08,149.903965 666.08,156.816 C666.08,168.592059 666.527996,178.319962 667.424,186 C657.951953,185.615998 642.016112,185.424 619.616,185.424 C595.807881,185.424 578.592053,185.615998 567.968,186 L567.968,182.16 L633.824,54.48 L613.088,54.48 C602.591948,54.48 593.984034,57.4879699 587.264,63.504 C580.543966,69.5200301 576.352008,79.631929 574.688,93.84 L570.272,93.84 C570.656002,90.1279814 570.848,85.2640301 570.848,79.248 C570.848,70.6719571 570.400004,60.9440544 569.504,50.064 C577.952042,50.4480019 592.351898,50.64 612.704,50.64 C637.920126,50.64 656.159944,50.4480019 667.424,50.064 L667.424,53.904 Z M719.648,101.904 C725.408029,89.9999405 735.839924,84.048 750.944,84.048 C760.92805,84.048 767.96798,86.543975 772.064,91.536 C774.240011,93.9680122 775.807995,97.1359805 776.768,101.04 C777.728005,104.94402 778.208,110.095968 778.208,116.496 L778.208,168.144 C778.208,173.392026 779.103991,177.00799 780.896,178.992 C782.688009,180.97601 785.887977,181.968 790.496,181.968 L790.496,186 C777.183933,185.487997 768.736018,185.232 765.152,185.232 C760.799978,185.232 752.480061,185.487997 740.192,186 L740.192,181.968 C744.032019,181.968 746.719992,180.97601 748.256,178.992 C749.792008,177.00799 750.56,173.392026 750.56,168.144 L750.56,108.432 C750.56,103.183974 749.696009,99.2160134 747.968,96.528 C746.239991,93.8399866 743.136022,92.496 738.656,92.496 C733.279973,92.496 728.768018,94.5759792 725.12,98.736 C721.471982,102.896021 719.648,108.175968 719.648,114.576 L719.648,168.144 C719.648,173.392026 720.415992,177.00799 721.952,178.992 C723.488008,180.97601 726.175981,181.968 730.016,181.968 L730.016,186 C717.727939,185.487997 709.792018,185.232 706.208,185.232 C701.855978,185.232 693.024067,185.487997 679.712,186 L679.712,181.968 C684.192022,181.968 687.359991,180.97601 689.216,178.992 C691.072009,177.00799 692,173.392026 692,168.144 L692,58.896 C692,53.0079706 691.072009,48.7200134 689.216,46.032 C687.359991,43.3439866 684.192022,42 679.712,42 L679.712,37.968 C683.80802,38.3520019 687.775981,38.544 691.616,38.544 C702.752056,38.544 712.095962,37.648009 719.648,35.856 L719.648,101.904 Z M822.752,187.344 C814.559959,187.344 808.44802,185.232021 804.416,181.008 C800.38398,176.783979 798.368,171.216035 798.368,164.304 C798.368,158.543971 799.871985,153.776019 802.88,150 C805.888015,146.223981 809.535979,143.31201 813.824,141.264 C818.112021,139.21599 823.583967,137.040012 830.24,134.736 C837.280035,132.303988 842.431984,130.09601 845.696,128.112 C848.960016,126.12799 850.592,123.408017 850.592,119.952 L850.592,104.976 C850.592,99.5999731 849.344012,95.408015 846.848,92.4 C844.351988,89.391985 840.480026,87.888 835.232,87.888 C829.087969,87.888 824.416016,89.4239846 821.216,92.496 C824.800018,93.7760064 827.58399,95.6959872 829.568,98.256 C831.55201,100.816013 832.544,103.823983 832.544,107.28 C832.544,111.632022 831.072015,115.087987 828.128,117.648 C825.183985,120.208013 821.600021,121.488 817.376,121.488 C812.895978,121.488 809.440012,120.080014 807.008,117.264 C804.575988,114.447986 803.36,110.928021 803.36,106.704 C803.36,103.119982 804.223991,100.080012 805.952,97.584 C807.680009,95.0879875 810.335982,92.7520109 813.92,90.576 C817.376017,88.5279898 821.631975,86.9280058 826.688,85.776 C831.744025,84.6239942 837.27997,84.048 843.296,84.048 C849.568031,84.048 855.007977,84.6879936 859.616,85.968 C864.224023,87.2480064 868.063985,89.4239846 871.136,92.496 C873.952014,95.3120141 875.839995,98.7679795 876.8,102.864 C877.760005,106.96002 878.24,112.527965 878.24,119.568 L878.24,171.792 C878.24,174.864015 878.527997,177.039994 879.104,178.32 C879.680003,179.600006 880.799992,180.24 882.464,180.24 C884.38401,180.24 886.687987,179.152011 889.376,176.976 L891.296,180.24 C885.535971,184.976024 878.496042,187.344 870.176,187.344 C863.135965,187.344 858.208014,185.936014 855.392,183.12 C852.575986,180.303986 851.104001,176.528024 850.976,171.792 C844.575968,182.160052 835.168062,187.344 822.752,187.344 Z M837.536,175.056 C842.528025,175.056 846.879981,172.432026 850.592,167.184 L850.592,127.824 C849.055992,130.384013 845.792025,133.199985 840.8,136.272 C835.807975,139.472016 832.032013,142.671984 829.472,145.872 C826.911987,149.072016 825.632,153.67997 825.632,159.696 C825.632,164.944026 826.719989,168.815988 828.896,171.312 C831.072011,173.808012 833.951982,175.056 837.536,175.056 Z M946.4,84.048 C961.120074,84.048 972.639958,88.2399581 980.96,96.624 C989.280042,105.008042 993.44,118.287909 993.44,136.464 C993.44,154.640091 989.280042,167.887958 980.96,176.208 C972.639958,184.528042 961.120074,188.688 946.4,188.688 C931.807927,188.688 920.320042,184.528042 911.936,176.208 C903.551958,167.887958 899.36,154.640091 899.36,136.464 C899.36,118.287909 903.551958,105.008042 911.936,96.624 C920.320042,88.2399581 931.807927,84.048 946.4,84.048 Z M946.4,87.888 C940.895972,87.888 936.512016,91.88796 933.248,99.888 C929.983984,107.88804 928.352,120.079918 928.352,136.464 C928.352,152.848082 929.983984,165.00796 933.248,172.944 C936.512016,180.88004 940.895972,184.848 946.4,184.848 C952.032028,184.848 956.447984,180.912039 959.648,173.04 C962.848016,165.167961 964.448,152.976083 964.448,136.464 C964.448,119.951917 962.816016,107.72804 959.552,99.792 C956.287984,91.8559603 951.904028,87.888 946.4,87.888 Z" id="path-1"></path>
    </defs>
    <g id="yiqinzhao" stroke="none" stroke-width="1" fill="none" fill-rule="evenodd">
        <g id="YiqinZhao" fill-rule="nonzero">
            <use fill="#333333" xlink:href="#path-1"></use>
            <use fill="#FFFFFF" xlink:href="#path-1"></use>
        </g>
    </g>
</svg>